# Blender v2.81 (sub 16) OBJ File: ''
# www.blender.org
o Cone_Cone.001
v 0.000000 -1.000000 1.000000
v -0.587785 -1.000000 0.809017
v -0.951057 -1.000000 0.309017
v -0.951056 -1.000000 -0.309017
v -0.587785 -1.000000 -0.809017
v 0.000000 -1.000000 -1.000000
v 0.587785 -1.000000 -0.809017
v 0.000000 1.000000 0.000000
v 0.951056 -1.000000 -0.309017
v 0.951056 -1.000000 0.309017
v 0.587785 -1.000000 0.809017
vt 0.250000 0.490000
vt 0.250000 0.250000
vt 0.391068 0.444164
vt 0.478254 0.324164
vt 0.478254 0.175836
vt 0.391068 0.055836
vt 0.250000 0.010000
vt 0.108932 0.055836
vt 0.021746 0.175836
vt 0.021746 0.324164
vt 0.108932 0.444164
vt 0.978254 0.175836
vt 0.750000 0.010000
vt 0.521746 0.175836
vt 0.608932 0.444164
vt 0.750000 0.490000
vt 0.891068 0.444164
vt 0.978254 0.324164
vt 0.891068 0.055836
vt 0.608932 0.055836
vt 0.521746 0.324164
vn -0.2791 0.4294 0.8589
vn -0.7306 0.4294 0.5308
vn -0.9031 0.4294 -0.0000
vn -0.7306 0.4294 -0.5308
vn -0.2791 0.4294 -0.8589
vn 0.2791 0.4294 -0.8589
vn 0.7306 0.4294 -0.5308
vn 0.9031 0.4294 0.0000
vn 0.7306 0.4294 0.5308
vn 0.2791 0.4294 0.8589
vn 0.0000 -1.0000 0.0000
s off
f 1/1/1 8/2/1 2/3/1
f 2/3/2 8/2/2 3/4/2
f 3/4/3 8/2/3 4/5/3
f 4/5/4 8/2/4 5/6/4
f 5/6/5 8/2/5 6/7/5
f 6/7/6 8/2/6 7/8/6
f 7/8/7 8/2/7 9/9/7
f 9/9/8 8/2/8 10/10/8
f 10/10/9 8/2/9 11/11/9
f 11/11/10 8/2/10 1/1/10
f 4/12/11 6/13/11 9/14/11
f 11/15/11 1/16/11 2/17/11
f 2/17/11 3/18/11 4/12/11
f 4/12/11 5/19/11 6/13/11
f 6/13/11 7/20/11 9/14/11
f 9/14/11 10/21/11 11/15/11
f 11/15/11 2/17/11 9/14/11
f 2/17/11 4/12/11 9/14/11
